HIERARCHY
ROOT mixamorig:Hips
{
	OFFSET -0.000008 104.274872 1.554316
	CHANNELS 6 Xposition Yposition Zposition Xrotation Yrotation Zrotation
	JOINT mixamorig:Spine
	{
		OFFSET -0.000005 10.181595 0.131521
		CHANNELS 6 Xposition Yposition Zposition Xrotation Yrotation Zrotation
		JOINT mixamorig:Spine1
		{
			OFFSET -0.000000 9.893959 -1.470711
			CHANNELS 6 Xposition Yposition Zposition Xrotation Yrotation Zrotation
			JOINT mixamorig:Spine2
			{
				OFFSET -0.000000 9.220757 -1.370642
				CHANNELS 3 Xrotation Yrotation Zrotation
				JOINT mixamorig:Neck
				{
					OFFSET 0.000001 16.740417 -2.049038
					CHANNELS 6 Xposition Yposition Zposition Xrotation Yrotation Zrotation
					JOINT mixamorig:Head
					{
						OFFSET 0.000000 9.617874 1.685009
						CHANNELS 6 Xposition Yposition Zposition Xrotation Yrotation Zrotation
						JOINT mixamorig:HeadTop_End
						{
							OFFSET 0.000002 22.037384 7.501098
							CHANNELS 6 Xposition Yposition Zposition Xrotation Yrotation Zrotation
							End Site
							{
								OFFSET 0.000002 23.106583 -2.828261
							}
						}
					}
				}
				JOINT mixamorig:RightShoulder
				{
					OFFSET -4.569969 11.014923 -2.160886
					CHANNELS 6 Xposition Yposition Zposition Xrotation Yrotation Zrotation
					JOINT mixamorig:RightArm
					{
						OFFSET -10.592850 -0.524811 -2.232100
						CHANNELS 3 Xrotation Yrotation Zrotation
						JOINT mixamorig:RightForeArm
						{
							OFFSET -27.841520 0.000015 -0.000005
							CHANNELS 6 Xposition Yposition Zposition Xrotation Yrotation Zrotation
							JOINT mixamorig:RightHand
							{
								OFFSET -28.328838 -0.000015 0.000018
								CHANNELS 6 Xposition Yposition Zposition Xrotation Yrotation Zrotation
								JOINT mixamorig:RightHandThumb1
								{
									OFFSET -2.464806 -1.573990 2.681853
									CHANNELS 6 Xposition Yposition Zposition Xrotation Yrotation Zrotation
									JOINT mixamorig:RightHandThumb2
									{
										OFFSET -3.215195 -1.872772 1.924282
										CHANNELS 6 Xposition Yposition Zposition Xrotation Yrotation Zrotation
										JOINT mixamorig:RightHandThumb3
										{
											OFFSET -2.654823 -1.527985 1.512609
											CHANNELS 6 Xposition Yposition Zposition Xrotation Yrotation Zrotation
											JOINT mixamorig:RightHandThumb4
											{
												OFFSET -2.018822 -1.152008 1.108055
												CHANNELS 3 Xrotation Yrotation Zrotation
												End Site
												{
													OFFSET -1.888100 -1.145340 1.324313
												}
											}
										}
									}
								}
								JOINT mixamorig:RightHandIndex1
								{
									OFFSET -9.108284 -0.517868 2.259835
									CHANNELS 6 Xposition Yposition Zposition Xrotation Yrotation Zrotation
									JOINT mixamorig:RightHandIndex2
									{
										OFFSET -3.699997 0.000000 0.001215
										CHANNELS 3 Xrotation Yrotation Zrotation
										JOINT mixamorig:RightHandIndex3
										{
											OFFSET -2.850014 0.000031 -0.000522
											CHANNELS 3 Xrotation Yrotation Zrotation
											JOINT mixamorig:RightHandIndex4
											{
												OFFSET -2.772179 -0.000015 -0.000019
												CHANNELS 3 Xrotation Yrotation Zrotation
												End Site
												{
													OFFSET -2.772186 0.000000 -0.000502
												}
											}
										}
									}
								}
								JOINT mixamorig:RightHandMiddle1
								{
									OFFSET -9.532509 -0.000046 -0.000025
									CHANNELS 6 Xposition Yposition Zposition Xrotation Yrotation Zrotation
									JOINT mixamorig:RightHandMiddle2
									{
										OFFSET -3.700012 0.000000 0.003713
										CHANNELS 3 Xrotation Yrotation Zrotation
										JOINT mixamorig:RightHandMiddle3
										{
											OFFSET -2.949989 0.000015 -0.002054
											CHANNELS 3 Xrotation Yrotation Zrotation
											JOINT mixamorig:RightHandMiddle4
											{
												OFFSET -2.946625 0.000000 -0.000154
												CHANNELS 3 Xrotation Yrotation Zrotation
												End Site
												{
													OFFSET -2.946632 0.000015 -0.001136
												}
											}
										}
									}
								}
								JOINT mixamorig:RightHandRing1
								{
									OFFSET -9.103600 -0.043076 -1.865135
									CHANNELS 6 Xposition Yposition Zposition Xrotation Yrotation Zrotation
									JOINT mixamorig:RightHandRing2
									{
										OFFSET -3.379272 0.000000 -0.001054
										CHANNELS 3 Xrotation Yrotation Zrotation
										JOINT mixamorig:RightHandRing3
										{
											OFFSET -2.889694 0.000015 0.000379
											CHANNELS 3 Xrotation Yrotation Zrotation
											JOINT mixamorig:RightHandRing4
											{
												OFFSET -2.638809 0.000000 0.000941
												CHANNELS 3 Xrotation Yrotation Zrotation
												End Site
												{
													OFFSET -2.638802 0.000000 0.005160
												}
											}
										}
									}
								}
								JOINT mixamorig:RightHandPinky1
								{
									OFFSET -8.076675 -0.486710 -3.806280
									CHANNELS 6 Xposition Yposition Zposition Xrotation Yrotation Zrotation
									JOINT mixamorig:RightHandPinky2
									{
										OFFSET -3.600006 -0.000031 -0.003747
										CHANNELS 3 Xrotation Yrotation Zrotation
										JOINT mixamorig:RightHandPinky3
										{
											OFFSET -2.099976 -0.000015 -0.005740
											CHANNELS 3 Xrotation Yrotation Zrotation
											JOINT mixamorig:RightHandPinky4
											{
												OFFSET -2.115776 -0.000031 -0.003680
												CHANNELS 3 Xrotation Yrotation Zrotation
												End Site
												{
													OFFSET -2.115776 -0.000015 -0.003507
												}
											}
										}
									}
								}
							}
						}
					}
				}
				JOINT mixamorig:LeftShoulder
				{
					OFFSET 4.570447 11.014725 -2.160858
					CHANNELS 6 Xposition Yposition Zposition Xrotation Yrotation Zrotation
					JOINT mixamorig:LeftArm
					{
						OFFSET 10.592371 -0.524597 -2.232121
						CHANNELS 3 Xrotation Yrotation Zrotation
						JOINT mixamorig:LeftForeArm
						{
							OFFSET 27.841520 -0.000015 0.000023
							CHANNELS 3 Xrotation Yrotation Zrotation
							JOINT mixamorig:LeftHand
							{
								OFFSET 28.328835 -0.000046 0.000017
								CHANNELS 6 Xposition Yposition Zposition Xrotation Yrotation Zrotation
								JOINT mixamorig:LeftHandThumb1
								{
									OFFSET 2.466141 -1.576187 2.681734
									CHANNELS 6 Xposition Yposition Zposition Xrotation Yrotation Zrotation
									JOINT mixamorig:LeftHandThumb2
									{
										OFFSET 3.217804 -1.872055 1.916487
										CHANNELS 6 Xposition Yposition Zposition Xrotation Yrotation Zrotation
										JOINT mixamorig:LeftHandThumb3
										{
											OFFSET 2.656021 -1.528809 1.514508
											CHANNELS 6 Xposition Yposition Zposition Xrotation Yrotation Zrotation
											JOINT mixamorig:LeftHandThumb4
											{
												OFFSET 2.020889 -1.154068 1.115132
												CHANNELS 6 Xposition Yposition Zposition Xrotation Yrotation Zrotation
												End Site
												{
													OFFSET 1.908852 -1.150833 1.300490
												}
											}
										}
									}
								}
								JOINT mixamorig:LeftHandIndex1
								{
									OFFSET 9.109306 -0.518036 2.259871
									CHANNELS 6 Xposition Yposition Zposition Xrotation Yrotation Zrotation
									JOINT mixamorig:LeftHandIndex2
									{
										OFFSET 3.699997 -0.000015 -0.000323
										CHANNELS 3 Xrotation Yrotation Zrotation
										JOINT mixamorig:LeftHandIndex3
										{
											OFFSET 2.850006 -0.000015 0.000350
											CHANNELS 3 Xrotation Yrotation Zrotation
											JOINT mixamorig:LeftHandIndex4
											{
												OFFSET 2.774857 -0.000015 -0.000027
												CHANNELS 3 Xrotation Yrotation Zrotation
												End Site
												{
													OFFSET 2.774864 0.000000 -0.000099
												}
											}
										}
									}
								}
								JOINT mixamorig:LeftHandMiddle1
								{
									OFFSET 9.533401 0.000031 0.000044
									CHANNELS 6 Xposition Yposition Zposition Xrotation Yrotation Zrotation
									JOINT mixamorig:LeftHandMiddle2
									{
										OFFSET 3.699997 0.000000 -0.000231
										CHANNELS 3 Xrotation Yrotation Zrotation
										JOINT mixamorig:LeftHandMiddle3
										{
											OFFSET 2.949997 -0.000015 -0.000059
											CHANNELS 3 Xrotation Yrotation Zrotation
											JOINT mixamorig:LeftHandMiddle4
											{
												OFFSET 2.952866 0.000000 0.000062
												CHANNELS 3 Xrotation Yrotation Zrotation
												End Site
												{
													OFFSET 2.952858 0.000000 0.000228
												}
											}
										}
									}
								}
								JOINT mixamorig:LeftHandRing1
								{
									OFFSET 9.104530 -0.043030 -1.865075
									CHANNELS 6 Xposition Yposition Zposition Xrotation Yrotation Zrotation
									JOINT mixamorig:LeftHandRing2
									{
										OFFSET 3.150009 0.000000 0.000042
										CHANNELS 3 Xrotation Yrotation Zrotation
										JOINT mixamorig:LeftHandRing3
										{
											OFFSET 2.949989 -0.000015 0.000040
											CHANNELS 3 Xrotation Yrotation Zrotation
											JOINT mixamorig:LeftHandRing4
											{
												OFFSET 2.644318 -0.000015 0.000056
												CHANNELS 6 Xposition Yposition Zposition Xrotation Yrotation Zrotation
												End Site
												{
													OFFSET 2.644318 0.000000 0.000120
												}
											}
										}
									}
								}
								JOINT mixamorig:LeftHandPinky1
								{
									OFFSET 8.077782 -0.486877 -3.806258
									CHANNELS 6 Xposition Yposition Zposition Xrotation Yrotation Zrotation
									JOINT mixamorig:LeftHandPinky2
									{
										OFFSET 3.599960 0.000031 0.014726
										CHANNELS 3 Xrotation Yrotation Zrotation
										JOINT mixamorig:LeftHandPinky3
										{
											OFFSET 2.099998 0.000031 0.007705
											CHANNELS 3 Xrotation Yrotation Zrotation
											JOINT mixamorig:LeftHandPinky4
											{
												OFFSET 2.125504 0.000000 0.007515
												CHANNELS 3 Xrotation Yrotation Zrotation
												End Site
												{
													OFFSET 2.125511 0.000015 0.006257
												}
											}
										}
									}
								}
							}
						}
					}
				}
			}
		}
	}
	JOINT mixamorig:RightUpLeg
	{
		OFFSET -8.207787 -6.751663 -1.599560
		CHANNELS 6 Xposition Yposition Zposition Xrotation Yrotation Zrotation
		JOINT mixamorig:RightLeg
		{
			OFFSET -0.000001 -44.370129 0.345939
			CHANNELS 3 Xrotation Yrotation Zrotation
			JOINT mixamorig:RightFoot
			{
				OFFSET 0.000001 -44.423679 -3.043537
				CHANNELS 3 Xrotation Yrotation Zrotation
				JOINT mixamorig:RightToeBase
				{
					OFFSET -0.000003 -8.728673 10.710563
					CHANNELS 6 Xposition Yposition Zposition Xrotation Yrotation Zrotation
					JOINT mixamorig:RightToe_End
					{
						OFFSET -0.000002 -0.000676 9.278122
						CHANNELS 6 Xposition Yposition Zposition Xrotation Yrotation Zrotation
						End Site
						{
							OFFSET -0.000003 -0.000676 9.278122
						}
					}
				}
			}
		}
	}
	JOINT mixamorig:LeftUpLeg
	{
		OFFSET 8.207791 -6.751694 -1.599555
		CHANNELS 6 Xposition Yposition Zposition Xrotation Yrotation Zrotation
		JOINT mixamorig:LeftLeg
		{
			OFFSET -0.000002 -44.370033 0.346957
			CHANNELS 3 Xrotation Yrotation Zrotation
			JOINT mixamorig:LeftFoot
			{
				OFFSET 0.000000 -44.423672 -3.044393
				CHANNELS 3 Xrotation Yrotation Zrotation
				JOINT mixamorig:LeftToeBase
				{
					OFFSET -0.000003 -8.728668 10.710562
					CHANNELS 6 Xposition Yposition Zposition Xrotation Yrotation Zrotation
					JOINT mixamorig:LeftToe_End
					{
						OFFSET -0.000003 -0.000676 9.278135
						CHANNELS 6 Xposition Yposition Zposition Xrotation Yrotation Zrotation
						End Site
						{
							OFFSET -0.000003 -0.000677 9.278135
						}
					}
				}
			}
		}
	}
}
MOTION
Frames: 4
Frame Time: 0.033333
-0.003935 79.402016 0.714359 -12.522970 0.224209 -4.347850 -0.000005 10.181571 0.131519 18.007743 2.451483 0.333581 0.000000 9.893959 -1.470712 6.363809 0.964538 0.288655 6.362583 0.984461 0.281406 0.000000 16.740421 -2.049035 2.888956 -1.837451 6.074635 -0.000001 9.617863 1.685010 13.300438 0.078750 -2.340971 0.000002 22.037369 7.501084 0.000001 -0.000000 0.000000 -4.569969 11.014927 -2.160881 0.914661 10.176993 4.343206 -89.236913 34.810121 73.932358 -27.841518 0.000020 -0.000003 0.000029 47.947163 -0.000005 -28.328831 0.000000 0.000027 -26.318749 -27.216373 -25.153007 -2.464812 -1.573970 2.681844 2.514183 -10.934680 3.770986 -3.215210 -1.872779 1.924279 25.170220 -29.877296 6.668413 -2.654822 -1.528001 1.512605 36.018641 -53.329178 18.661106 -0.000003 -0.000004 0.000000 -9.108283 -0.517855 2.259839 0.292958 -3.794926 4.588268 0.022039 -0.535670 4.640589 0.033209 0.669553 -5.585677 -0.000000 0.000000 -0.000000 -9.532515 -0.000021 -0.000016 6.690900 -6.943844 87.728910 9.515036 -6.402462 112.050947 9.368133 -6.546693 110.472853 0.000000 -0.000001 0.000000 -9.103588 -0.043058 -1.865123 1.807453 -7.188002 92.598056 8.443830 -6.804389 102.394829 8.731937 -6.701747 104.754686 -0.000001 -0.000001 0.000000 -8.076666 -0.486699 -3.806274 -3.176837 -7.765279 94.471099 7.998263 -6.930146 99.991784 10.879052 -5.891245 125.325024 0.000000 -0.000000 -0.000001 4.570449 11.014739 -2.160853 0.586871 -2.553420 -9.470593 -47.368680 -30.531198 -81.423115 -0.000047 -12.046074 -0.000008 28.328844 -0.000065 0.000025 45.771191 -14.037375 54.027438 2.466132 -1.576218 2.681732 2.715574 3.713837 2.491105 3.217811 -1.872088 1.916484 5.422198 7.556503 -3.402822 2.656027 -1.528796 1.514508 0.967439 17.846413 -3.373885 2.020888 -1.154085 1.115130 -0.000000 0.000004 -0.000006 9.109295 -0.518045 2.259874 -1.621931 -4.343871 -17.243093 1.144668 3.811766 -33.402658 0.003033 -0.211267 1.687852 0.000002 0.000002 0.000003 9.533415 0.000016 0.000045 -0.391941 -1.733895 -9.770737 1.067234 3.690747 -32.285307 0.066176 -0.953022 7.943102 0.000002 -0.000000 0.000000 9.104526 -0.043043 -1.865075 0.280025 2.046631 -11.909014 0.312352 2.053409 -17.284072 0.066255 -0.955427 7.943114 2.644310 -0.000000 0.000062 0.000001 0.000000 -0.000000 8.077785 -0.486876 -3.806254 1.858125 11.348131 -9.243047 0.295229 -2.281517 -15.642527 0.010093 0.214650 -1.843571 -0.000001 0.000000 -0.000003 -8.207788 -6.751682 -1.599567 -49.647132 -3.794463 -8.845268 53.634641 2.911520 0.798617 6.788357 -0.005935 4.691908 -0.000003 -8.728669 10.710563 0.388950 0.000002 -0.000003 -0.000004 -0.000676 9.278122 -0.000000 0.000000 -0.000000 8.207791 -6.751714 -1.599550 -52.146360 0.561134 7.560453 53.949216 -3.128665 4.692623 9.752480 0.003081 -3.730354 -0.000002 -8.728670 10.710556 -3.160794 -0.000002 -0.000001 -0.000003 -0.000677 9.278139 0.000003 -0.000000 -0.000000 
-0.005990 79.406456 0.711631 -12.548925 0.207466 -4.341127 -0.000005 10.181592 0.131523 18.005804 2.424578 0.353706 0.000001 9.893967 -1.470711 6.363957 0.951663 0.292932 6.362832 0.970924 0.285842 -0.000000 16.740423 -2.049036 2.896604 -1.812649 6.009968 0.000000 9.617890 1.685011 13.131300 0.096290 -2.381716 0.000002 22.037354 7.501105 -0.000001 -0.000000 0.000000 -4.569968 11.014936 -2.160886 0.907021 10.194043 4.400457 -89.702589 34.716028 74.284639 -27.841511 0.000027 -0.000017 -0.000034 47.989053 0.000024 -28.328842 0.000002 0.000017 -25.675607 -25.555356 -24.841977 -2.464815 -1.573972 2.681861 2.324118 -10.282752 2.723532 -3.215213 -1.872778 1.924274 24.826175 -29.309848 6.579828 -2.654814 -1.527991 1.512618 32.441015 -51.647025 16.377822 -0.000001 0.000002 -0.000000 -9.108271 -0.517856 2.259843 0.261310 -3.281630 4.859549 0.023292 -0.551095 4.767583 0.034027 0.677959 -5.655072 0.000001 0.000000 -0.000000 -9.532535 -0.000026 -0.000023 6.905557 -6.949937 88.452931 9.613060 -6.362771 112.925041 9.491447 -6.500151 111.563436 -0.000000 0.000001 -0.000002 -9.103581 -0.043060 -1.865127 2.637618 -7.207734 93.304673 8.538452 -6.782902 103.196891 8.845577 -6.671061 105.728822 0.000001 0.000001 -0.000001 -8.076665 -0.486694 -3.806269 -1.753451 -7.752038 95.087353 8.084201 -6.916518 100.710757 10.978160 -5.822177 126.322750 -0.000001 0.000000 0.000005 4.570446 11.014743 -2.160854 0.587051 -2.554315 -9.491415 -47.361157 -30.475184 -81.382565 -0.000009 -11.956436 0.000006 28.328844 -0.000056 0.000024 45.738444 -14.110844 54.067839 2.466127 -1.576219 2.681730 2.715578 3.713839 2.491107 3.217806 -1.872075 1.916492 5.422194 7.556507 -3.402826 2.656027 -1.528803 1.514501 0.967440 17.846410 -3.373891 2.020903 -1.154067 1.115129 -0.000001 0.000002 -0.000006 9.109287 -0.518051 2.259871 -1.621931 -4.343872 -17.243091 1.144664 3.811766 -33.402654 0.003030 -0.211267 1.687848 -0.000003 -0.000000 0.000005 9.533405 0.000016 0.000037 -0.391944 -1.733894 -9.770736 1.067230 3.690746 -32.285304 0.066179 -0.953020 7.943102 -0.000004 -0.000001 0.000002 9.104529 -0.043045 -1.865078 0.280025 2.046631 -11.909013 0.312351 2.053409 -17.284074 0.066254 -0.955426 7.943113 2.644326 0.000015 0.000059 0.000002 0.000000 -0.000000 8.077775 -0.486882 -3.806264 1.858124 11.348135 -9.243046 0.295225 -2.281516 -15.642528 0.010096 0.214651 -1.843571 -0.000000 -0.000000 -0.000000 -8.207788 -6.751658 -1.599568 -49.618958 -3.788126 -8.835285 53.625980 2.922796 0.791668 6.793261 -0.005714 4.691750 -0.000001 -8.728674 10.710561 0.387562 -0.000000 0.000001 -0.000002 -0.000676 9.278118 -0.000000 -0.000000 -0.000000 8.207789 -6.751688 -1.599558 -52.114026 0.578714 7.575297 53.940903 -3.132067 4.687593 9.753340 0.003054 -3.729419 -0.000003 -8.728668 10.710556 -3.161206 0.000002 -0.000002 -0.000003 -0.000677 9.278143 0.000003 -0.000000 -0.000000 
-0.004525 79.410568 0.711145 -12.571726 0.194509 -4.341964 -0.000004 10.181590 0.131520 17.993667 2.390869 0.379810 0.000001 9.893951 -1.470713 6.361808 0.935518 0.299053 6.360788 0.954053 0.292210 0.000000 16.740410 -2.049031 2.881567 -1.780061 5.899205 -0.000001 9.617900 1.685007 12.974566 0.087002 -2.383115 0.000002 22.037384 7.501096 -0.000001 0.000000 0.000000 -4.569968 11.014921 -2.160882 0.892281 10.216012 4.507268 -90.212251 34.435956 74.797825 -27.841511 0.000015 -0.000016 -0.000007 48.110425 0.000003 -28.328850 0.000009 0.000022 -23.869582 -22.785694 -24.231182 -2.464808 -1.573962 2.681840 1.874399 -8.183989 -0.589047 -3.215208 -1.872776 1.924272 23.743414 -27.492152 6.311362 -2.654835 -1.527991 1.512615 22.355436 -45.664507 10.175215 -0.000001 -0.000003 -0.000003 -9.108278 -0.517854 2.259824 0.130837 -1.644507 5.727276 0.027489 -0.600321 5.173228 0.036739 0.704816 -5.876615 -0.000000 -0.000000 0.000000 -9.532540 -0.000042 -0.000039 6.884004 -6.954112 87.116597 9.431678 -6.434863 111.311702 9.263936 -6.586318 109.550517 -0.000001 0.000002 0.000003 -9.103592 -0.043059 -1.865149 3.299630 -7.080101 92.007914 8.363588 -6.821482 101.716529 8.635892 -6.728216 103.930815 -0.000001 -0.000001 -0.000001 -8.076674 -0.486696 -3.806288 -0.414221 -7.480007 93.997309 7.925452 -6.940803 99.383740 10.794264 -5.948299 124.481004 -0.000000 0.000000 -0.000001 4.570448 11.014733 -2.160853 0.587339 -2.557968 -9.528939 -47.319995 -30.378725 -81.314290 -0.000021 -11.909863 0.000010 28.328835 -0.000069 0.000012 45.749194 -14.188705 54.081865 2.466135 -1.576231 2.681730 2.715573 3.713842 2.491104 3.217799 -1.872081 1.916483 5.422196 7.556506 -3.402823 2.656022 -1.528806 1.514507 0.967444 17.846413 -3.373883 2.020895 -1.154084 1.115142 0.000001 -0.000002 -0.000006 9.109295 -0.518045 2.259871 -1.621928 -4.343872 -17.243091 1.144665 3.811765 -33.402658 0.003030 -0.211266 1.687854 -0.000001 0.000001 0.000003 9.533407 0.000001 0.000039 -0.391943 -1.733895 -9.770738 1.067228 3.690747 -32.285304 0.066177 -0.953022 7.943103 0.000001 0.000000 -0.000000 9.104526 -0.043065 -1.865076 0.280028 2.046629 -11.909014 0.312349 2.053409 -17.284072 0.066253 -0.955427 7.943113 2.644324 0.000000 0.000052 -0.000003 0.000000 0.000000 8.077781 -0.486896 -3.806262 1.858123 11.348133 -9.243045 0.295228 -2.281516 -15.642528 0.010092 0.214651 -1.843572 0.000001 -0.000001 0.000000 -8.207787 -6.751670 -1.599557 -49.589759 -3.777186 -8.816638 53.616712 2.921859 0.781147 6.798308 -0.005069 4.701995 -0.000001 -8.728668 10.710563 0.384693 -0.000001 0.000000 -0.000002 -0.000676 9.278122 -0.000000 -0.000000 -0.000000 8.207791 -6.751703 -1.599558 -52.088016 0.594204 7.592368 53.938940 -3.139496 4.683609 9.750358 0.003331 -3.722786 -0.000002 -8.728667 10.710564 -3.162188 0.000004 -0.000001 -0.000003 -0.000678 9.278139 0.000004 -0.000000 -0.000000 
-0.000378 79.411270 0.714367 -12.589897 0.177185 -4.350763 -0.000005 10.181579 0.131522 17.978764 2.347429 0.405647 0.000000 9.893951 -1.470712 6.359653 0.915473 0.305727 6.358712 0.933586 0.299171 0.000001 16.740435 -2.049039 2.838493 -1.739735 5.754287 -0.000001 9.617851 1.685016 12.783238 0.071049 -2.386512 0.000002 22.037354 7.501109 -0.000001 0.000000 0.000000 -4.569968 11.014944 -2.160889 0.864267 10.240868 4.704921 -90.870305 33.930051 75.608917 -27.841516 0.000020 -0.000023 -0.000008 47.987007 0.000004 -28.328840 -0.000005 0.000010 -20.551182 -18.537956 -23.487439 -2.464803 -1.573958 2.681842 1.643906 -4.862338 -5.740235 -3.215209 -1.872771 1.924267 22.081831 -24.608429 5.929506 -2.654820 -1.528002 1.512617 9.936654 -34.673821 3.078223 -0.000001 -0.000003 -0.000005 -9.108284 -0.517849 2.259834 -0.166291 0.929196 7.103971 0.034847 -0.677993 5.813267 0.041240 0.747175 -6.226218 -0.000001 0.000000 -0.000001 -9.532532 -0.000027 -0.000033 6.646999 -6.954791 84.033149 9.005519 -6.581619 107.585854 8.728621 -6.753309 104.911009 0.000001 0.000001 0.000002 -9.103600 -0.043061 -1.865143 3.774958 -6.895505 89.015649 7.957514 -6.893100 98.307596 8.146735 -6.833819 99.790662 -0.000002 -0.000001 -0.000001 -8.076681 -0.486699 -3.806290 0.747116 -7.109695 91.464211 7.559639 -6.982698 96.340501 10.357375 -6.215038 120.251300 0.000002 -0.000002 -0.000002 4.570446 11.014747 -2.160861 0.587679 -2.561359 -9.572615 -47.161384 -30.245942 -81.171969 -0.000022 -12.065567 -0.000002 28.328846 -0.000034 0.000021 45.765290 -14.210072 54.011787 2.466134 -1.576205 2.681733 2.715575 3.713841 2.491104 3.217798 -1.872074 1.916482 5.422192 7.556507 -3.402819 2.656023 -1.528796 1.514498 0.967439 17.846413 -3.373887 2.020900 -1.154088 1.115134 0.000001 0.000004 -0.000007 9.109310 -0.518051 2.259873 -1.621928 -4.343871 -17.243089 1.144667 3.811766 -33.402654 0.003030 -0.211266 1.687848 0.000004 0.000001 -0.000003 9.533405 0.000004 0.000043 -0.391937 -1.733895 -9.770738 1.067229 3.690747 -32.285304 0.066178 -0.953021 7.943104 -0.000002 -0.000002 0.000003 9.104533 -0.043046 -1.865075 0.280029 2.046631 -11.909014 0.312350 2.053408 -17.284072 0.066255 -0.955429 7.943117 2.644319 0.000015 0.000062 -0.000003 -0.000001 -0.000000 8.077777 -0.486875 -3.806253 1.858125 11.348134 -9.243045 0.295228 -2.281515 -15.642528 0.010095 0.214653 -1.843575 0.000004 -0.000001 -0.000000 -8.207787 -6.751678 -1.599567 -49.566942 -3.760326 -8.786163 53.614898 2.912885 0.768699 6.800150 -0.004367 4.718896 -0.000002 -8.728669 10.710561 0.380716 -0.000002 0.000001 -0.000002 -0.000676 9.278122 -0.000000 -0.000000 -0.000000 8.207792 -6.751713 -1.599556 -52.075483 0.609505 7.619371 53.953177 -3.148121 4.678527 9.738540 0.004065 -3.712984 -0.000002 -8.728665 10.710556 -3.163264 0.000003 -0.000001 -0.000004 -0.000677 9.278131 0.000003 -0.000000 -0.000000 
